<?xml version='1.0' encoding='iso-8859-1'?>
<!-- Uploaded to: SVG Repo, www.svgrepo.com, Generator: SVG Repo Mixer Tools -->
<svg fill="#000000" height="800px" width="800px" version="1.1" xmlns="http://www.w3.org/2000/svg" viewBox="0 0 470 470" xmlns:xlink="http://www.w3.org/1999/xlink" enable-background="new 0 0 470 470">
  <g>
    <path d="m235,163.545c-12.406,0-22.5,10.094-22.5,22.5v261.455c0,12.406 10.094,22.5 22.5,22.5s22.5-10.094 22.5-22.5v-261.455c0-12.406-10.094-22.5-22.5-22.5zm7.5,283.955c0,4.136-3.364,7.5-7.5,7.5s-7.5-3.364-7.5-7.5v-261.455c0-4.136 3.364-7.5 7.5-7.5s7.5,3.364 7.5,7.5v261.455z"/>
    <path d="m395,233.545c-2.629,0-5.153,0.458-7.5,1.29v-48.79c0-4.143-3.357-7.5-7.5-7.5h-93.044c-2.538-17.662-13.895-32.511-29.456-39.924v-45.109h22.5c4.136,0 7.5,3.364 7.5,7.5s-3.364,7.5-7.5,7.5c-4.143,0-7.5,3.357-7.5,7.5s3.357,7.5 7.5,7.5c12.406,0 22.5-10.094 22.5-22.5s-10.094-22.5-22.5-22.5h-37.5v-35h38.966c17.286,0 31.767-12.241 35.227-28.512h23.935c3.461,16.269 17.935,28.512 35.221,28.512h20.121c4.143,0 7.5-3.357 7.5-7.5s-3.357-7.5-7.5-7.5h-20.121c-8.941,0-16.575-5.624-19.604-13.512h39.725c4.143,0 7.5-3.357 7.5-7.5s-3.357-7.5-7.5-7.5h-85.991c-4.143,0-7.5,3.357-7.5,7.5 0,11.586-9.426,21.012-21.012,21.012h-38.967v-2.5c0-4.143-3.357-7.5-7.5-7.5s-7.5,3.357-7.5,7.5v2.5h-38.966c-11.586,0-21.012-9.426-21.012-21.012 0-4.143-3.357-7.5-7.5-7.5h-85.991c-4.143,0-7.5,3.357-7.5,7.5s3.357,7.5 7.5,7.5h39.725c-3.029,7.888-10.663,13.512-19.604,13.512h-20.121c-4.143,0-7.5,3.357-7.5,7.5s3.357,7.5 7.5,7.5h20.121c17.286,0 31.76-12.243 35.221-28.512h23.935c3.46,16.271 17.94,28.512 35.227,28.512h38.965v35h-37.5c-12.406,0-22.5,10.094-22.5,22.5s10.094,22.5 22.5,22.5c4.143,0 7.5-3.357 7.5-7.5s-3.357-7.5-7.5-7.5c-4.136,0-7.5-3.364-7.5-7.5s3.364-7.5 7.5-7.5h22.5v45.109c-15.561,7.413-26.917,22.262-29.456,39.924h-91.217c-4.143,0-7.5,3.357-7.5,7.5v49.533c-2.844-1.301-6.001-2.033-9.327-2.033-12.406,0-22.5,10.094-22.5,22.5v191.455c0,12.406 10.094,22.5 22.5,22.5s22.5-10.094 22.5-22.5v-153.228h62.5c4.143,0 7.5-3.357 7.5-7.5s-3.357-7.5-7.5-7.5h-60.673v-85.728h83.173v115.728h-32.5c-4.143,0-7.5,3.357-7.5,7.5s3.357,7.5 7.5,7.5h40c4.143,0 7.5-3.357 7.5-7.5v-130.727c0-16.189 10.313-30.013 24.714-35.253 0.023-0.007 0.045-0.016 0.068-0.023 3.974-1.437 8.256-2.224 12.719-2.224 4.463,0 8.745,0.787 12.719,2.224 0.023,0.007 0.045,0.016 0.068,0.023 14.401,5.239 24.714,19.063 24.714,35.253v130.728c0,4.143 3.357,7.5 7.5,7.5h40c4.143,0 7.5-3.357 7.5-7.5s-3.357-7.5-7.5-7.5h-32.5v-115.728h85v85.728h-62.502c-4.143,0-7.5,3.357-7.5,7.5s3.357,7.5 7.5,7.5h62.5v153.227c0,12.406 10.094,22.5 22.5,22.5s22.5-10.094 22.5-22.5v-191.455c0-12.406-10.094-22.5-22.5-22.5zm-312.5,213.955c0,4.136-3.364,7.5-7.5,7.5s-7.5-3.364-7.5-7.5v-191.455c0-4.136 3.364-7.5 7.5-7.5s7.5,3.364 7.5,7.5v191.455zm145-313.411v-40.577h15v40.577c-2.451-0.352-4.953-0.544-7.5-0.544s-5.049,0.192-7.5,0.544zm175,313.411c0,4.136-3.364,7.5-7.5,7.5s-7.5-3.364-7.5-7.5v-191.455c0-4.136 3.364-7.5 7.5-7.5s7.5,3.364 7.5,7.5v191.455z"/>
  </g>
</svg>