<svg width="204" height="204" viewBox="0 0 204 204" fill="none" xmlns="http://www.w3.org/2000/svg">
<mask id="path-1-inside-1_43_55" fill="white">
<path d="M121.72 55.43L123.51 56.61L129.51 57.34L132.65 55.54L134.75 51.55L140.07 48.96L143.23 48.33L146.05 46.96L152.38 45L154.59 46.25L156.72 51.03L157.41 55.38L158.87 57.91L159.99 57.19L165.85 55.33L170.84 57.55L172.87 56.94L174.72 57.82L176.93 61.22L178.69 72.75L179.56 75.65L168.5 82.58L168.38 81.19L167.55 79.55L166.56 78.73L163.08 79.28L158.54 81.23L151.83 101.82L152.4 103.7L152.43 105.95L151.24 106.89L145.01 109.4L134.07 113.13L128.6 116.17L122.44 116.63L119.22 121.17L118.73 125.43L120.08 126.06L122.69 126.02L124.81 124.99L127.56 124.72L129.37 125.22L130.83 129.64L131.35 133.96L128.84 138.96L129.39 140.7L130.57 141.81L134.41 140.87L134.88 143.44L135.93 145.94L141.23 153.36L144.22 155.21L150.61 155.98L156.33 157.25L165.2 157.81L166.24 159.27L165.14 161.99L163.29 163.38L161.85 164.16L157.81 165.15L155.28 166.51L153.75 168.42L153.71 170.22L154.82 173.65L152.96 174.22L150.5 173.6L148.64 172.24L147.08 172.07L141.48 173.46L135.78 172.27L134.43 170.91L133.62 168.86L134.45 161.01L133.91 158.86L131.24 153.96L130.1 153.66L126.53 154.57L118.83 155.05L115.7 154.84L113.92 151.17L111.62 150.44L108.27 151.9L100.84 149.49L94.84 148.39L93.84 148.58L93.76 146.34L94.84 142.62L101.96 135.74L101.07 134.59L98.98 134.06L96.15 131.42L94.67 128.67L94.17 126.67L93.08 125.68L88.02 125.83L87.82 123.87L88.32 121.78L91.68 117.09L91.87 115.04L92.93 113.2L92.74 110.74L90.46 103.56L89.21 104.09L87.74 105.84L85.42 107.26L83.6 107.44L82.23 107.19L82.22 104.62L81.65 103.18L78.51 103.43L76.61 104.62V103.59L74.96 102.87L75.49 101.15L76.67 99.76L76.75 94.15L75.95 91.21L75.03 90.4L73.18 89.84L67.74 89.28L66.91 88.86L65.89 87.47L66.46 85.46L65.36 82.38L61.55 80.26L60.42 78.88L59.97 72.96L52.19 70.94L48.42 71.29L44.43 73.22L42.7 74.57L42.08 77.17L40.21 80.78L39.14 79.66L39.04 77.7L35.53 71.42L34.29 68.8L33.46 68.1L28.52 67.98L25.66 67.05L25.07 66.33L25 62.48L25.75 59.08L25.73 56.39L26.19 56.09L36.58 54.71L41.95 55.7L51.17 54.92L52.34 56.15L53.75 60.83L54.43 61.77L57.09 63.44L59.08 63.96L61.7 62.45L62.34 64.01L63.83 64.71L67.51 64.16L71.69 62.42L74.88 59.84L75.91 57.21L76.49 56.46L78.49 55.58L78.5 54.72L79.77 54.33L89.83 54.77L98.85 56.19L104.09 55.44L110.15 56.22L120.18 56.67L121.72 55.43Z"/>
</mask>
<path d="M121.72 55.43L123.51 56.61L129.51 57.34L132.65 55.54L134.75 51.55L140.07 48.96L143.23 48.33L146.05 46.96L152.38 45L154.59 46.25L156.72 51.03L157.41 55.38L158.87 57.91L159.99 57.19L165.85 55.33L170.84 57.55L172.87 56.94L174.72 57.82L176.93 61.22L178.69 72.75L179.56 75.65L168.5 82.58L168.38 81.19L167.55 79.55L166.56 78.73L163.08 79.28L158.54 81.23L151.83 101.82L152.4 103.7L152.43 105.95L151.24 106.89L145.01 109.4L134.07 113.13L128.6 116.17L122.44 116.63L119.22 121.17L118.73 125.43L120.08 126.06L122.69 126.02L124.81 124.99L127.56 124.72L129.37 125.22L130.83 129.64L131.35 133.96L128.84 138.96L129.39 140.7L130.57 141.81L134.41 140.87L134.88 143.44L135.93 145.94L141.23 153.36L144.22 155.21L150.61 155.98L156.33 157.25L165.2 157.81L166.24 159.27L165.14 161.99L163.29 163.38L161.85 164.16L157.81 165.15L155.28 166.51L153.75 168.42L153.71 170.22L154.82 173.65L152.96 174.22L150.5 173.6L148.64 172.24L147.08 172.07L141.48 173.46L135.78 172.27L134.43 170.91L133.62 168.86L134.45 161.01L133.91 158.86L131.24 153.96L130.1 153.66L126.53 154.57L118.83 155.05L115.7 154.84L113.92 151.17L111.62 150.44L108.27 151.9L100.84 149.49L94.84 148.39L93.84 148.58L93.76 146.34L94.84 142.62L101.96 135.74L101.07 134.59L98.98 134.06L96.15 131.42L94.67 128.67L94.17 126.67L93.08 125.68L88.02 125.83L87.82 123.87L88.32 121.78L91.68 117.09L91.87 115.04L92.93 113.2L92.74 110.74L90.46 103.56L89.21 104.09L87.74 105.84L85.42 107.26L83.6 107.44L82.23 107.19L82.22 104.62L81.65 103.18L78.51 103.43L76.61 104.62V103.59L74.96 102.87L75.49 101.15L76.67 99.76L76.75 94.15L75.95 91.21L75.03 90.4L73.18 89.84L67.74 89.28L66.91 88.86L65.89 87.47L66.46 85.46L65.36 82.38L61.55 80.26L60.42 78.88L59.97 72.96L52.19 70.94L48.42 71.29L44.43 73.22L42.7 74.57L42.08 77.17L40.21 80.78L39.14 79.66L39.04 77.7L35.53 71.42L34.29 68.8L33.46 68.1L28.52 67.98L25.66 67.05L25.07 66.33L25 62.48L25.75 59.08L25.73 56.39L26.19 56.09L36.58 54.71L41.95 55.7L51.17 54.92L52.34 56.15L53.75 60.83L54.43 61.77L57.09 63.44L59.08 63.96L61.7 62.45L62.34 64.01L63.83 64.71L67.51 64.16L71.69 62.42L74.88 59.84L75.91 57.21L76.49 56.46L78.49 55.58L78.5 54.72L79.77 54.33L89.83 54.77L98.85 56.19L104.09 55.44L110.15 56.22L120.18 56.67L121.72 55.43Z" fill="black" stroke="#2D8E6E" stroke-width="6" mask="url(#path-1-inside-1_43_55)"/>
</svg>
