<svg width="204" height="204" viewBox="0 0 204 204" fill="none" xmlns="http://www.w3.org/2000/svg">
<mask id="path-1-inside-1_43_150" fill="white">
<path d="M124.551 32.3979L127.641 32.4179L130.081 31.7479L134.261 27.9179L139.061 25.0779H140.711L144.791 23.8379L146.011 24.0279L147.141 24.8479L147.461 26.0979L145.351 30.1179L145.881 32.6879L146.921 33.8679L150.451 35.6979L154.201 36.9279L157.711 41.0579L159.241 41.6079L162.021 41.5779L164.471 42.1679L169.851 46.5979L173.441 53.0179L173.821 56.8979L172.811 59.3379L171.801 64.2479L173.001 70.2979L172.801 72.0279L172.081 73.1279L168.531 74.0879L167.981 74.8779L168.581 76.9579L169.641 78.0279L176.661 78.9979L178.641 81.7479L180.241 82.7979L183.241 83.4379L184.291 83.1479L183.761 87.1079L181.411 91.3079L181.681 92.0379L184.471 93.7879L187.001 96.4979L186.631 96.7879L186.421 99.6879L185.871 101.118L184.551 102.678L182.361 103.408L180.461 104.808L178.331 109.778L178.111 112.488L179.471 115.308L180.221 118.828L177.831 120.798L177.491 121.898L177.671 123.868L176.971 131.678L177.501 133.778L177.081 134.848L175.171 136.398L174.771 139.478L173.011 140.758L173.221 145.498L172.171 146.898L172.271 148.058L175.531 153.338L178.101 156.418L179.811 157.628L180.811 159.718L180.931 163.128L179.261 167.068L178.171 167.638L175.521 173.248L172.211 178.648L171.391 179.368L169.781 179.788L167.311 179.658L166.711 177.758L161.371 171.848L157.561 171.608L156.061 170.358L154.731 170.138L153.441 171.118L152.551 173.018L148.391 177.768L146.041 179.368L144.891 179.578L143.551 178.618L143.151 177.308L143.201 167.608L142.171 165.998L137.951 163.558L137.631 160.308L134.701 157.638L133.601 157.248L132.591 157.598L130.941 159.718L130.001 162.258L127.691 164.358H126.591L124.841 163.298L123.501 163.548L121.061 161.758L120.131 161.618L118.631 162.228L117.931 161.438L117.331 159.558L116.581 159.448L115.241 160.468L114.061 161.258L113.121 160.948L111.651 157.838L110.581 157.408L109.521 157.948L107.711 160.988L106.581 161.838L105.061 160.988L101.861 160.668L95.7411 161.298L94.5111 160.878L92.0511 161.478L93.4311 157.348L90.0411 154.568L90.1311 152.248L90.6911 151.318L93.1411 150.028L93.9311 149.158L94.5311 146.368L97.6211 143.198L97.0411 141.318L94.0411 139.698L94.8711 136.678L91.2511 135.318L90.1211 134.548L89.9511 133.638L90.2411 132.998L91.1211 132.578L94.3511 132.168L94.9811 130.658L94.8811 127.568L93.9611 123.688L93.8011 118.628L93.4711 117.618L92.1011 116.948L79.2311 117.028L72.5611 114.538L70.8511 112.878L69.8211 110.898L70.7311 109.658L72.9011 108.298L74.5211 106.618L75.3711 105.138L79.6111 102.538L80.6311 100.748L80.9411 98.7679L77.7111 97.0179L72.8811 95.3579L74.2311 91.2179L74.2811 88.6479L72.3011 84.8479L70.6911 84.4079L68.4411 85.0779L67.0511 84.9379L66.7711 80.4379L66.2911 78.5179L65.6811 78.0079L60.9511 77.5079L59.7711 78.7079L60.4411 81.0979L59.8011 82.0779L55.8311 81.5179L48.2011 84.3779L47.1611 81.7179L46.1411 80.7179L43.2311 80.8479L41.1311 81.4579L38.6711 82.9579L33.0811 87.4579L27.7011 94.4679L26.2911 95.3579L24.8611 94.7579L23.6411 91.2379L20.5911 89.2379L20.3711 87.8679L20.7011 85.5579L22.5411 83.7579L22.3011 79.9479L23.0411 77.9479L22.9011 76.4679L21.4611 74.0879L21.8611 69.2979L24.9011 63.9179L26.5811 63.7979L27.8611 63.0379L30.7211 58.8779L35.9911 54.1679L41.6311 53.2179L49.5711 53.7879L54.2811 53.1679L56.6111 51.6579L59.6511 48.5579L61.1611 45.3279L61.8011 41.7779L63.5111 38.3679L64.3611 37.2279L67.1111 35.4579L69.4511 33.0779L70.4611 33.1079L74.8711 33.9879L76.8111 33.8079L78.1711 34.7079L78.9611 36.4479L78.7311 37.5179L75.8411 40.2079L75.4511 41.5279L81.8011 43.4579L86.0511 47.7479L87.8011 47.9779L90.4911 46.4579L91.8711 44.5479L90.0611 41.1879L89.9411 39.1479L93.3911 38.0579L95.3411 38.1679L98.1111 39.2679L99.5111 39.1779L100.091 38.6379L100.081 37.2479L101.281 34.2779L104.341 31.6879L105.731 31.4079L112.511 33.6979L114.561 35.4279L115.531 37.0079L117.101 37.7879L122.721 35.5479L123.561 33.4979L124.551 32.3979Z"/>
</mask>
<path d="M124.551 32.3979L127.641 32.4179L130.081 31.7479L134.261 27.9179L139.061 25.0779H140.711L144.791 23.8379L146.011 24.0279L147.141 24.8479L147.461 26.0979L145.351 30.1179L145.881 32.6879L146.921 33.8679L150.451 35.6979L154.201 36.9279L157.711 41.0579L159.241 41.6079L162.021 41.5779L164.471 42.1679L169.851 46.5979L173.441 53.0179L173.821 56.8979L172.811 59.3379L171.801 64.2479L173.001 70.2979L172.801 72.0279L172.081 73.1279L168.531 74.0879L167.981 74.8779L168.581 76.9579L169.641 78.0279L176.661 78.9979L178.641 81.7479L180.241 82.7979L183.241 83.4379L184.291 83.1479L183.761 87.1079L181.411 91.3079L181.681 92.0379L184.471 93.7879L187.001 96.4979L186.631 96.7879L186.421 99.6879L185.871 101.118L184.551 102.678L182.361 103.408L180.461 104.808L178.331 109.778L178.111 112.488L179.471 115.308L180.221 118.828L177.831 120.798L177.491 121.898L177.671 123.868L176.971 131.678L177.501 133.778L177.081 134.848L175.171 136.398L174.771 139.478L173.011 140.758L173.221 145.498L172.171 146.898L172.271 148.058L175.531 153.338L178.101 156.418L179.811 157.628L180.811 159.718L180.931 163.128L179.261 167.068L178.171 167.638L175.521 173.248L172.211 178.648L171.391 179.368L169.781 179.788L167.311 179.658L166.711 177.758L161.371 171.848L157.561 171.608L156.061 170.358L154.731 170.138L153.441 171.118L152.551 173.018L148.391 177.768L146.041 179.368L144.891 179.578L143.551 178.618L143.151 177.308L143.201 167.608L142.171 165.998L137.951 163.558L137.631 160.308L134.701 157.638L133.601 157.248L132.591 157.598L130.941 159.718L130.001 162.258L127.691 164.358H126.591L124.841 163.298L123.501 163.548L121.061 161.758L120.131 161.618L118.631 162.228L117.931 161.438L117.331 159.558L116.581 159.448L115.241 160.468L114.061 161.258L113.121 160.948L111.651 157.838L110.581 157.408L109.521 157.948L107.711 160.988L106.581 161.838L105.061 160.988L101.861 160.668L95.7411 161.298L94.5111 160.878L92.0511 161.478L93.4311 157.348L90.0411 154.568L90.1311 152.248L90.6911 151.318L93.1411 150.028L93.9311 149.158L94.5311 146.368L97.6211 143.198L97.0411 141.318L94.0411 139.698L94.8711 136.678L91.2511 135.318L90.1211 134.548L89.9511 133.638L90.2411 132.998L91.1211 132.578L94.3511 132.168L94.9811 130.658L94.8811 127.568L93.9611 123.688L93.8011 118.628L93.4711 117.618L92.1011 116.948L79.2311 117.028L72.5611 114.538L70.8511 112.878L69.8211 110.898L70.7311 109.658L72.9011 108.298L74.5211 106.618L75.3711 105.138L79.6111 102.538L80.6311 100.748L80.9411 98.7679L77.7111 97.0179L72.8811 95.3579L74.2311 91.2179L74.2811 88.6479L72.3011 84.8479L70.6911 84.4079L68.4411 85.0779L67.0511 84.9379L66.7711 80.4379L66.2911 78.5179L65.6811 78.0079L60.9511 77.5079L59.7711 78.7079L60.4411 81.0979L59.8011 82.0779L55.8311 81.5179L48.2011 84.3779L47.1611 81.7179L46.1411 80.7179L43.2311 80.8479L41.1311 81.4579L38.6711 82.9579L33.0811 87.4579L27.7011 94.4679L26.2911 95.3579L24.8611 94.7579L23.6411 91.2379L20.5911 89.2379L20.3711 87.8679L20.7011 85.5579L22.5411 83.7579L22.3011 79.9479L23.0411 77.9479L22.9011 76.4679L21.4611 74.0879L21.8611 69.2979L24.9011 63.9179L26.5811 63.7979L27.8611 63.0379L30.7211 58.8779L35.9911 54.1679L41.6311 53.2179L49.5711 53.7879L54.2811 53.1679L56.6111 51.6579L59.6511 48.5579L61.1611 45.3279L61.8011 41.7779L63.5111 38.3679L64.3611 37.2279L67.1111 35.4579L69.4511 33.0779L70.4611 33.1079L74.8711 33.9879L76.8111 33.8079L78.1711 34.7079L78.9611 36.4479L78.7311 37.5179L75.8411 40.2079L75.4511 41.5279L81.8011 43.4579L86.0511 47.7479L87.8011 47.9779L90.4911 46.4579L91.8711 44.5479L90.0611 41.1879L89.9411 39.1479L93.3911 38.0579L95.3411 38.1679L98.1111 39.2679L99.5111 39.1779L100.091 38.6379L100.081 37.2479L101.281 34.2779L104.341 31.6879L105.731 31.4079L112.511 33.6979L114.561 35.4279L115.531 37.0079L117.101 37.7879L122.721 35.5479L123.561 33.4979L124.551 32.3979Z" fill="black" stroke="#2D8E6E" stroke-width="6" mask="url(#path-1-inside-1_43_150)"/>
</svg>
