<svg width="204" height="204" viewBox="0 0 204 204" fill="none" xmlns="http://www.w3.org/2000/svg">
<mask id="path-1-inside-1_41_46" fill="white">
<path d="M86.85 38.48L90.36 44.76L90.46 46.72L91.53 47.84L93.4 44.23L94.02 41.63L95.75 40.28L99.74 38.35L103.51 38L111.29 40.02L111.74 45.94L112.87 47.32L116.68 49.44L117.78 52.52L117.21 54.53L118.23 55.92L119.06 56.34L124.5 56.9L126.35 57.46L127.27 58.27L128.07 61.21L127.99 66.82L126.81 68.21L126.28 69.93L127.93 70.65V71.68L129.83 70.49L132.97 70.24L133.54 71.68L133.55 74.25L134.92 74.5L136.74 74.32L139.06 72.9L140.53 71.15L141.78 70.62L144.06 77.8L144.25 80.26L143.19 82.1L143 84.15L139.64 88.84L139.14 90.93L139.34 92.89L144.4 92.74L145.49 93.73L145.99 95.73L147.47 98.48L150.3 101.12L152.39 101.65L153.28 102.8L146.16 109.68L145.08 113.4L145.16 115.64L139.64 117.81L138.5 117.72L137.36 116.65L135.67 116.95L133.19 118.52L132.52 119.62L127.78 123.79L125.13 127.9L122.39 131.11L120.35 131.62L117.65 131.46L116.63 131.89L115.03 136.46L114.58 139.96L114.98 146.85L115.43 148.84L119.29 153.17L120.06 154.84L120.14 156.84L118.81 160.69L116.22 164.78L115.23 165.34L114.18 165.63L111.18 164.99L109.58 163.94L107.6 161.19L100.58 160.22L99.52 159.15L98.92 157.07L99.47 156.28L103.02 155.32L103.74 154.22L103.94 152.49L102.74 146.44L103.75 141.53L104.76 139.09L104.38 135.21L100.79 128.79L95.41 124.36L92.96 123.77L90.18 123.8L88.65 123.25L85.14 119.12L81.39 117.89L77.86 116.06L76.82 114.88L76.29 112.31L78.4 108.29L78.08 107.04L76.95 106.22L75.73 106.03L71.65 107.27H70L65.2 110.11L61.02 113.94L58.58 114.61L55.49 114.59L51.89 111.91L50.78 109.65L50 106.04L51.52 103.37L51.59 101.16L53.41 99.53L57.16 98.5L59.61 96.8L62.32 96.73L63.27 96.15L60.13 88.35L60.8 84.29L58.71 79.71L59.57 73.38L58.87 61.06L59.14 58.17L61.32 55.89L65.57 53.52L73.21 51.14L76.89 49.21L77.67 48.36L78.8 43.97L80.94 39.36L82.22 38.84L86.85 38.48Z"/>
</mask>
<path d="M86.85 38.48L90.36 44.76L90.46 46.72L91.53 47.84L93.4 44.23L94.02 41.63L95.75 40.28L99.74 38.35L103.51 38L111.29 40.02L111.74 45.94L112.87 47.32L116.68 49.44L117.78 52.52L117.21 54.53L118.23 55.92L119.06 56.34L124.5 56.9L126.35 57.46L127.27 58.27L128.07 61.21L127.99 66.82L126.81 68.21L126.28 69.93L127.93 70.65V71.68L129.83 70.49L132.97 70.24L133.54 71.68L133.55 74.25L134.92 74.5L136.74 74.32L139.06 72.9L140.53 71.15L141.78 70.62L144.06 77.8L144.25 80.26L143.19 82.1L143 84.15L139.64 88.84L139.14 90.93L139.34 92.89L144.4 92.74L145.49 93.73L145.99 95.73L147.47 98.48L150.3 101.12L152.39 101.65L153.28 102.8L146.16 109.68L145.08 113.4L145.16 115.64L139.64 117.81L138.5 117.72L137.36 116.65L135.67 116.95L133.19 118.52L132.52 119.62L127.78 123.79L125.13 127.9L122.39 131.11L120.35 131.62L117.65 131.46L116.63 131.89L115.03 136.46L114.58 139.96L114.98 146.85L115.43 148.84L119.29 153.17L120.06 154.84L120.14 156.84L118.81 160.69L116.22 164.78L115.23 165.34L114.18 165.63L111.18 164.99L109.58 163.94L107.6 161.19L100.58 160.22L99.52 159.15L98.92 157.07L99.47 156.28L103.02 155.32L103.74 154.22L103.94 152.49L102.74 146.44L103.75 141.53L104.76 139.09L104.38 135.21L100.79 128.79L95.41 124.36L92.96 123.77L90.18 123.8L88.65 123.25L85.14 119.12L81.39 117.89L77.86 116.06L76.82 114.88L76.29 112.31L78.4 108.29L78.08 107.04L76.95 106.22L75.73 106.03L71.65 107.27H70L65.2 110.11L61.02 113.94L58.58 114.61L55.49 114.59L51.89 111.91L50.78 109.65L50 106.04L51.52 103.37L51.59 101.16L53.41 99.53L57.16 98.5L59.61 96.8L62.32 96.73L63.27 96.15L60.13 88.35L60.8 84.29L58.71 79.71L59.57 73.38L58.87 61.06L59.14 58.17L61.32 55.89L65.57 53.52L73.21 51.14L76.89 49.21L77.67 48.36L78.8 43.97L80.94 39.36L82.22 38.84L86.85 38.48Z" fill="black" stroke="#2D8E6E" stroke-width="6" mask="url(#path-1-inside-1_41_46)"/>
</svg>
