<svg width="204" height="204" viewBox="0 0 204 204" fill="none" xmlns="http://www.w3.org/2000/svg">
<mask id="path-1-inside-1_41_47" fill="white">
<path d="M112.9 32.44L122.06 33.79L127.25 35.17L130.83 37.11L133.75 39.61L136.48 40.34L146.37 49.98L149.66 49.1L152.58 49.48L155.61 51.03L157.9 52.78L159.75 54.89L160.79 57.33L163.75 58.7L169.01 59.97L181.12 63.89L181.11 64.75L179.11 65.63L178.53 66.38L177.5 69.01L174.31 71.59L170.13 73.33L166.45 73.88L164.96 73.18L164.32 71.62L161.7 73.13L159.71 72.61L157.05 70.94L156.37 70L154.96 65.32L153.79 64.09L144.57 64.87L139.2 63.88L128.81 65.26L128.35 65.56L128.37 68.25L127.62 71.65L127.69 75.5L128.28 76.22L131.14 77.15L136.08 77.27L136.91 77.97L138.15 80.59L133.52 80.95L132.24 81.47L130.1 86.08L128.97 90.47L128.19 91.32L124.51 93.25L116.87 95.63L112.62 98L110.44 100.28L110.17 103.17L110.87 115.49L110.01 121.82L112.1 126.4L111.43 130.46L114.57 138.26L113.62 138.84L110.91 138.91L108.46 140.61L104.71 141.64L102.89 143.27L102.82 145.48L101.3 148.15L102.08 151.76L103.19 154.02L106.79 156.7L105.8 157.8L104.96 159.85L99.34 162.09L97.77 161.31L96.8 159.73L94.75 158L87.97 155.71L86.58 155.99L83.52 158.58L82.32 161.55L82.33 162.94L81.75 163.48L80.35 163.57L77.58 162.47L75.63 162.36L72.18 163.45L72.3 165.49L74.11 168.85L72.73 170.76L70.04 172.28L68.29 172.05L64.04 167.76L57.69 165.83L58.08 164.51L60.97 161.82L61.2 160.75L60.41 159.01L59.05 158.11L57.11 158.29L52.7 157.41L52.72 155.08L53.97 148.98L53.07 145.29L51.16 143.39L51 142.32L51.45 138.56L53.01 134.42L53.66 130.42L55.16 129.58L61.77 129.45L63.05 130.32L67.93 126.35L68.48 123.15L71.82 123.96L73.71 122.34L73.21 120.39L72.05 118.96L69.37 116.67L66.84 115.51L65.58 114.3L67.4 110.67L68.49 105.51L67.54 103.04L67.67 101.36L66.98 98.31L64.48 93.11L64.88 89.54L63.57 86.33L63.18 81.58L62.18 76.41L62.25 70.36L61.26 64.19L62.7 53.37L67.56 51.8L72.84 46.44L81.54 47.22L85.12 46.48L108.52 32.33L109.8 32L112.9 32.44Z"/>
</mask>
<path d="M112.9 32.44L122.06 33.79L127.25 35.17L130.83 37.11L133.75 39.61L136.48 40.34L146.37 49.98L149.66 49.1L152.58 49.48L155.61 51.03L157.9 52.78L159.75 54.89L160.79 57.33L163.75 58.7L169.01 59.97L181.12 63.89L181.11 64.75L179.11 65.63L178.53 66.38L177.5 69.01L174.31 71.59L170.13 73.33L166.45 73.88L164.96 73.18L164.32 71.62L161.7 73.13L159.71 72.61L157.05 70.94L156.37 70L154.96 65.32L153.79 64.09L144.57 64.87L139.2 63.88L128.81 65.26L128.35 65.56L128.37 68.25L127.62 71.65L127.69 75.5L128.28 76.22L131.14 77.15L136.08 77.27L136.91 77.97L138.15 80.59L133.52 80.95L132.24 81.47L130.1 86.08L128.97 90.47L128.19 91.32L124.51 93.25L116.87 95.63L112.62 98L110.44 100.28L110.17 103.17L110.87 115.49L110.01 121.82L112.1 126.4L111.43 130.46L114.57 138.26L113.62 138.84L110.91 138.91L108.46 140.61L104.71 141.64L102.89 143.27L102.82 145.48L101.3 148.15L102.08 151.76L103.19 154.02L106.79 156.7L105.8 157.8L104.96 159.85L99.34 162.09L97.77 161.31L96.8 159.73L94.75 158L87.97 155.71L86.58 155.99L83.52 158.58L82.32 161.55L82.33 162.94L81.75 163.48L80.35 163.57L77.58 162.47L75.63 162.36L72.18 163.45L72.3 165.49L74.11 168.85L72.73 170.76L70.04 172.28L68.29 172.05L64.04 167.76L57.69 165.83L58.08 164.51L60.97 161.82L61.2 160.75L60.41 159.01L59.05 158.11L57.11 158.29L52.7 157.41L52.72 155.08L53.97 148.98L53.07 145.29L51.16 143.39L51 142.32L51.45 138.56L53.01 134.42L53.66 130.42L55.16 129.58L61.77 129.45L63.05 130.32L67.93 126.35L68.48 123.15L71.82 123.96L73.71 122.34L73.21 120.39L72.05 118.96L69.37 116.67L66.84 115.51L65.58 114.3L67.4 110.67L68.49 105.51L67.54 103.04L67.67 101.36L66.98 98.31L64.48 93.11L64.88 89.54L63.57 86.33L63.18 81.58L62.18 76.41L62.25 70.36L61.26 64.19L62.7 53.37L67.56 51.8L72.84 46.44L81.54 47.22L85.12 46.48L108.52 32.33L109.8 32L112.9 32.44Z" fill="black" stroke="#2D8E6E" stroke-width="6" mask="url(#path-1-inside-1_41_47)"/>
</svg>
