<svg width="204" height="204" viewBox="0 0 204 204" fill="none" xmlns="http://www.w3.org/2000/svg">
<mask id="path-1-inside-1_41_51" fill="white">
<path d="M86.2266 36.7559L91.3325 36.6479L92.7671 37.2186L96.3381 36L96.9243 36.2391L98.1969 37.8742L100.657 39.278L101.475 40.1264L108.848 42.5328L111.124 44.1293L113.484 44.6538L114.887 44.3221L115.373 43.8902L117.294 41.0442L118.189 40.8051L119.022 41.4838L119.33 42.4479L118.081 45.4791L118.15 47.3302L117.055 49.6286L116.731 52.4823L118.165 54.1406L119.554 57.4417L119.415 60.0023L118.412 64.6763L118.443 66.2497L119.739 70.5072L119.554 76.6929L119.06 77.8961L118.273 77.927L115.828 76.3535L113.761 76.369L110.715 77.2791L109.728 78.4206L108.949 81.336L108.841 89.0026L109.45 99.0678L107.815 106.619L105.802 110.961L104.907 114.64L106.874 117.455L107.46 117.849L109.604 118.072L110.923 117.031L112.774 114.717L122.03 110.514L123.333 110.421L124.791 111.084L126.364 110.529L126.958 111.879L127.683 111.933L128.933 111.185L129.596 110.814H131L134.17 112.55L139.06 111.424L139.692 109.634L140.51 109.156L141.119 109.041L141.821 109.534L143.433 109.773L146.217 109.272L147.05 109.712L148.353 112.257L150.567 112.342L153.382 114.2L157.601 113.614L160.524 114L162.445 113.545L163.386 112.92L167.127 113.398L170.482 114.763L171.569 116.422L171.561 118.327L169.98 123.332V124.258L174.13 126.348L175.618 128.67L176.683 134.516L176.845 138.743L175.796 137.894L174.369 137.617L171.731 139.745L170.744 141.442L167.713 141.758L158.38 145.676L150.151 146.209L148.886 145.245L148.608 142.144L148.893 138.434L148.523 137.061L145.631 135.156L145.006 134.184L144.25 129.163L142.947 127.929L140.756 127.382L137.949 127.351L130.344 128.577L124.274 129.989L120.857 131.238L117.116 133.236L116.06 134.832L116.183 136.02L116.854 136.992L119.654 138.542L123.819 140.231L127.953 140.64L128.763 142.19L130.082 142.167L130.683 142.738L131.547 147.798L131.354 148.623L129.673 149.741L129.187 150.875L129.565 151.993L131.678 153.25L132.581 154.299L132.527 155.896L131.748 157.045L128.817 157.793L124.791 159.83L120.934 159.428L119.739 159.752L119.045 160.331L119.014 167.727L118.667 168.784L119.631 170.967L121.027 172.486L122.461 174.823L123.04 176.705L122.824 177.885L121.459 179.528L119.423 180.739L116.816 180.94L111.093 182.868L110.707 187.38L110.275 187.75L106.943 187.395L105.848 186.632L105.833 184.873L106.627 182.343L106.851 179.304L104.591 177.253L103.727 175.394L103.866 170.52L104.992 168.005L106.411 166.463L107.553 165.684L110.576 164.573L114.139 161.156L116.014 152.896L116.168 149.772L115.774 149.201L113.545 148.384L112.327 148.461L105.848 144.064L101.807 142.761L99.5389 142.815L96.0682 143.471L91.2939 143.193L81.9074 143.818L80.4728 143.594L77.781 142.499L69.2661 137.809L67.0371 137.532L66.3506 137.933L65.3557 137.925L56 129.996L59.3397 114.27L60.9748 110.637L64.7464 107.413L64.1139 104.899L62.2474 103.495L61.8078 99.7388L64.2527 96.7771L62.4325 90.0207L62.7333 85.9946L63.7128 82.6781L62.9955 70.4532L71.3408 63.2572L77.3028 58.5909L84.6532 47.3147L86.2574 39.8873L86.2266 36.7559Z"/>
</mask>
<path d="M86.2266 36.7559L91.3325 36.6479L92.7671 37.2186L96.3381 36L96.9243 36.2391L98.1969 37.8742L100.657 39.278L101.475 40.1264L108.848 42.5328L111.124 44.1293L113.484 44.6538L114.887 44.3221L115.373 43.8902L117.294 41.0442L118.189 40.8051L119.022 41.4838L119.33 42.4479L118.081 45.4791L118.15 47.3302L117.055 49.6286L116.731 52.4823L118.165 54.1406L119.554 57.4417L119.415 60.0023L118.412 64.6763L118.443 66.2497L119.739 70.5072L119.554 76.6929L119.06 77.8961L118.273 77.927L115.828 76.3535L113.761 76.369L110.715 77.2791L109.728 78.4206L108.949 81.336L108.841 89.0026L109.45 99.0678L107.815 106.619L105.802 110.961L104.907 114.64L106.874 117.455L107.46 117.849L109.604 118.072L110.923 117.031L112.774 114.717L122.03 110.514L123.333 110.421L124.791 111.084L126.364 110.529L126.958 111.879L127.683 111.933L128.933 111.185L129.596 110.814H131L134.17 112.55L139.06 111.424L139.692 109.634L140.51 109.156L141.119 109.041L141.821 109.534L143.433 109.773L146.217 109.272L147.05 109.712L148.353 112.257L150.567 112.342L153.382 114.2L157.601 113.614L160.524 114L162.445 113.545L163.386 112.92L167.127 113.398L170.482 114.763L171.569 116.422L171.561 118.327L169.98 123.332V124.258L174.13 126.348L175.618 128.67L176.683 134.516L176.845 138.743L175.796 137.894L174.369 137.617L171.731 139.745L170.744 141.442L167.713 141.758L158.38 145.676L150.151 146.209L148.886 145.245L148.608 142.144L148.893 138.434L148.523 137.061L145.631 135.156L145.006 134.184L144.25 129.163L142.947 127.929L140.756 127.382L137.949 127.351L130.344 128.577L124.274 129.989L120.857 131.238L117.116 133.236L116.06 134.832L116.183 136.02L116.854 136.992L119.654 138.542L123.819 140.231L127.953 140.64L128.763 142.19L130.082 142.167L130.683 142.738L131.547 147.798L131.354 148.623L129.673 149.741L129.187 150.875L129.565 151.993L131.678 153.25L132.581 154.299L132.527 155.896L131.748 157.045L128.817 157.793L124.791 159.83L120.934 159.428L119.739 159.752L119.045 160.331L119.014 167.727L118.667 168.784L119.631 170.967L121.027 172.486L122.461 174.823L123.04 176.705L122.824 177.885L121.459 179.528L119.423 180.739L116.816 180.94L111.093 182.868L110.707 187.38L110.275 187.75L106.943 187.395L105.848 186.632L105.833 184.873L106.627 182.343L106.851 179.304L104.591 177.253L103.727 175.394L103.866 170.52L104.992 168.005L106.411 166.463L107.553 165.684L110.576 164.573L114.139 161.156L116.014 152.896L116.168 149.772L115.774 149.201L113.545 148.384L112.327 148.461L105.848 144.064L101.807 142.761L99.5389 142.815L96.0682 143.471L91.2939 143.193L81.9074 143.818L80.4728 143.594L77.781 142.499L69.2661 137.809L67.0371 137.532L66.3506 137.933L65.3557 137.925L56 129.996L59.3397 114.27L60.9748 110.637L64.7464 107.413L64.1139 104.899L62.2474 103.495L61.8078 99.7388L64.2527 96.7771L62.4325 90.0207L62.7333 85.9946L63.7128 82.6781L62.9955 70.4532L71.3408 63.2572L77.3028 58.5909L84.6532 47.3147L86.2574 39.8873L86.2266 36.7559Z" fill="black" stroke="#2D8E6E" stroke-width="6" mask="url(#path-1-inside-1_41_51)"/>
</svg>
