<svg width="204" height="204" viewBox="0 0 204 204" fill="none" xmlns="http://www.w3.org/2000/svg">
<mask id="path-1-inside-1_43_63" fill="white">
<path d="M115.66 28L128.54 33.68L149.07 40.93L153.07 43.28L157.71 41.79L161.36 41.77L169.9 45.89L185.78 61.45L191.76 71.87L188.73 74.47L181.63 78.47L172.12 77.19L170.22 76.53L168.52 74.48L166.25 73.8L161.28 73.61L160.69 79.09L159.96 80.98L159.46 81.2L156.76 79.76H153.97L149.12 81.32L147.01 83.14L146.9 83.84L147.68 88.98L147.75 97.42L146.4 98.42L142.36 100.06L132.34 100.85L126.25 101.8L120.42 110.38L118.54 112.25L115.47 114.16L115.53 117.04L116.96 121.68L117.61 125.93L116.87 128.96L114.41 130.66L108.3 131.19L107.02 130.9L102.22 131.54L99.58 131.23L95.11 131.56L85.78 129.89L84.86 130.49L83.93 135L84.03 153.21L83.37 166.99L81.75 167.96L80.81 167.89L80.04 166.14L78 166.86L76.11 166L74.42 166.12L62.42 171.57L60.02 174.57L58.31 175.92L55.53 175.63L54.77 175.12L52.22 171.47L53.38 166.7L55.99 161.07L58.11 151.28L57.32 138.23L57.46 128.29L58.47 124.51L59.75 123.03L63.7 121.85L66.38 121.83L69.55 123.87L70.57 123.83L71.21 122.27L71.45 114.25L69.77 108.73L69.73 106.69L71.03 100.63L71.21 97.31L69.41 93.03L67.55 90.88L67.97 87.18L69.39 84.2L69.3 81.8L70.92 77.87L70.52 76.62L69.44 75.74L68.28 76.05L65.79 79.74L65.16 80.3L63.34 80.73L60.28 80.05L57.33 77.98L47.77 74.86L46.71 73.76L43.52 71.94L41.87 69.82L41.11 69.51L36.48 71.09L34.62 70.35L28 70.49L28.09 54.05L32.23 54.03L48.79 39.45L73.91 34.44L76.32 36.58L82.03 37.06L88.48 36.34L93.33 36.9L98.66 36.74L103.91 30.48"/>
</mask>
<path d="M115.66 28L128.54 33.68L149.07 40.93L153.07 43.28L157.71 41.79L161.36 41.77L169.9 45.89L185.78 61.45L191.76 71.87L188.73 74.47L181.63 78.47L172.12 77.19L170.22 76.53L168.52 74.48L166.25 73.8L161.28 73.61L160.69 79.09L159.96 80.98L159.46 81.2L156.76 79.76H153.97L149.12 81.32L147.01 83.14L146.9 83.84L147.68 88.98L147.75 97.42L146.4 98.42L142.36 100.06L132.34 100.85L126.25 101.8L120.42 110.38L118.54 112.25L115.47 114.16L115.53 117.04L116.96 121.68L117.61 125.93L116.87 128.96L114.41 130.66L108.3 131.19L107.02 130.9L102.22 131.54L99.58 131.23L95.11 131.56L85.78 129.89L84.86 130.49L83.93 135L84.03 153.21L83.37 166.99L81.75 167.96L80.81 167.89L80.04 166.14L78 166.86L76.11 166L74.42 166.12L62.42 171.57L60.02 174.57L58.31 175.92L55.53 175.63L54.77 175.12L52.22 171.47L53.38 166.7L55.99 161.07L58.11 151.28L57.32 138.23L57.46 128.29L58.47 124.51L59.75 123.03L63.7 121.85L66.38 121.83L69.55 123.87L70.57 123.83L71.21 122.27L71.45 114.25L69.77 108.73L69.73 106.69L71.03 100.63L71.21 97.31L69.41 93.03L67.55 90.88L67.97 87.18L69.39 84.2L69.3 81.8L70.92 77.87L70.52 76.62L69.44 75.74L68.28 76.05L65.79 79.74L65.16 80.3L63.34 80.73L60.28 80.05L57.33 77.98L47.77 74.86L46.71 73.76L43.52 71.94L41.87 69.82L41.11 69.51L36.48 71.09L34.62 70.35L28 70.49L28.09 54.05L32.23 54.03L48.79 39.45L73.91 34.44L76.32 36.58L82.03 37.06L88.48 36.34L93.33 36.9L98.66 36.74L103.91 30.48" fill="black"/>
<path d="M128.54 33.68L127.329 36.4249L127.434 36.4709L127.541 36.5088L128.54 33.68ZM149.07 40.93L150.59 38.3434L150.341 38.1973L150.069 38.1012L149.07 40.93ZM153.07 43.28L151.55 45.8666L152.708 46.547L153.987 46.1363L153.07 43.28ZM157.71 41.79L157.694 38.79L157.232 38.7926L156.793 38.9337L157.71 41.79ZM161.36 41.77L162.664 39.068L162.038 38.7662L161.344 38.77L161.36 41.77ZM169.9 45.89L172 43.7472L171.648 43.4022L171.204 43.188L169.9 45.89ZM185.78 61.45L188.382 59.9567L188.176 59.5973L187.88 59.3072L185.78 61.45ZM191.76 71.87L193.714 74.1467L195.598 72.53L194.362 70.3767L191.76 71.87ZM188.73 74.47L190.203 77.0837L190.46 76.9389L190.684 76.7467L188.73 74.47ZM181.63 78.47L181.23 81.4432L182.226 81.5773L183.103 81.0837L181.63 78.47ZM172.12 77.19L171.136 80.0239L171.421 80.1229L171.72 80.1632L172.12 77.19ZM170.22 76.53L167.911 78.445L168.445 79.0893L169.236 79.3639L170.22 76.53ZM168.52 74.48L170.829 72.565L170.25 71.8665L169.381 71.6062L168.52 74.48ZM166.25 73.8L167.111 70.9262L166.746 70.8168L166.365 70.8022L166.25 73.8ZM161.28 73.61L161.395 70.6122L158.597 70.5052L158.297 73.2889L161.28 73.61ZM160.69 79.09L163.489 80.1709L163.631 79.8031L163.673 79.4111L160.69 79.09ZM159.96 80.98L161.168 83.7259L162.309 83.2239L162.758 82.0609L159.96 80.98ZM159.46 81.2L158.048 83.8471L159.334 84.5329L160.668 83.9459L159.46 81.2ZM156.76 79.76L158.172 77.1129L157.51 76.76H156.76V79.76ZM153.97 79.76V76.76H153.499L153.051 76.9041L153.97 79.76ZM149.12 81.32L148.201 78.4641L147.622 78.6506L147.161 79.0483L149.12 81.32ZM147.01 83.14L145.051 80.8683L144.217 81.5871L144.046 82.6743L147.01 83.14ZM146.9 83.84L143.936 83.3743L143.864 83.832L143.934 84.2901L146.9 83.84ZM147.68 88.98L150.68 88.9551L150.678 88.7413L150.646 88.5299L147.68 88.98ZM147.75 97.42L149.536 99.8307L150.763 98.9219L150.75 97.3951L147.75 97.42ZM146.4 98.42L147.528 101.2L147.88 101.057L148.186 100.831L146.4 98.42ZM142.36 100.06L142.596 103.051L143.058 103.014L143.488 102.84L142.36 100.06ZM132.34 100.85L132.104 97.8593L131.99 97.8683L131.878 97.8858L132.34 100.85ZM126.25 101.8L125.788 98.8359L124.501 99.0366L123.769 100.114L126.25 101.8ZM120.42 110.38L122.536 112.507L122.74 112.304L122.901 112.066L120.42 110.38ZM118.54 112.25L120.125 114.797L120.414 114.617L120.656 114.377L118.54 112.25ZM115.47 114.16L113.885 111.613L112.435 112.515L112.471 114.222L115.47 114.16ZM115.53 117.04L112.531 117.102L112.539 117.522L112.663 117.924L115.53 117.04ZM116.96 121.68L119.926 121.226L119.892 121.008L119.827 120.796L116.96 121.68ZM117.61 125.93L120.524 126.642L120.665 126.064L120.576 125.476L117.61 125.93ZM116.87 128.96L118.576 131.428L119.514 130.78L119.784 129.672L116.87 128.96ZM114.41 130.66L114.669 133.649L115.461 133.58L116.116 133.128L114.41 130.66ZM108.3 131.19L107.637 134.116L108.093 134.219L108.559 134.179L108.3 131.19ZM107.02 130.9L107.683 127.974L107.157 127.855L106.624 127.926L107.02 130.9ZM102.22 131.54L101.87 134.52L102.244 134.563L102.616 134.514L102.22 131.54ZM99.58 131.23L99.9299 128.25L99.6451 128.217L99.3591 128.238L99.58 131.23ZM95.11 131.56L94.5814 134.513L94.9537 134.58L95.3309 134.552L95.11 131.56ZM85.78 129.89L86.3086 126.937L85.1376 126.727L84.1412 127.377L85.78 129.89ZM84.86 130.49L83.2212 127.977L82.1743 128.66L81.9218 129.884L84.86 130.49ZM83.93 135L80.9918 134.394L80.9283 134.702L80.93 135.016L83.93 135ZM84.03 153.21L87.0266 153.354L87.0304 153.274L87.03 153.194L84.03 153.21ZM83.37 166.99L84.9112 169.564L86.2897 168.738L86.3666 167.134L83.37 166.99ZM81.75 167.96L81.5272 170.952L82.4754 171.022L83.2912 170.534L81.75 167.96ZM80.81 167.89L78.0641 169.098L78.7899 170.748L80.5872 170.882L80.81 167.89ZM80.04 166.14L82.7859 164.932L81.6653 162.385L79.0415 163.311L80.04 166.14ZM78 166.86L76.7575 169.591L77.8582 170.091L78.9985 169.689L78 166.86ZM76.11 166L77.3525 163.269L76.6583 162.954L75.8975 163.008L76.11 166ZM74.42 166.12L74.2075 163.128L73.67 163.166L73.1794 163.389L74.42 166.12ZM62.42 171.57L61.1794 168.839L60.5258 169.135L60.0774 169.696L62.42 171.57ZM60.02 174.57L61.8789 176.925L62.1483 176.712L62.3626 176.444L60.02 174.57ZM58.31 175.92L57.9987 178.904L59.2117 179.03L60.1689 178.275L58.31 175.92ZM55.53 175.63L53.8584 178.121L54.4773 178.536L55.2187 178.614L55.53 175.63ZM54.77 175.12L52.3107 176.838L52.6322 177.298L53.0984 177.611L54.77 175.12ZM52.22 171.47L49.305 170.761L48.9848 172.078L49.7607 173.188L52.22 171.47ZM53.38 166.7L50.6582 165.438L50.5345 165.705L50.465 165.991L53.38 166.7ZM55.99 161.07L58.7118 162.332L58.8516 162.03L58.922 161.705L55.99 161.07ZM58.11 151.28L61.042 151.915L61.1295 151.511L61.1045 151.099L58.11 151.28ZM57.32 138.23L54.3203 138.188L54.3187 138.3L54.3255 138.411L57.32 138.23ZM57.46 128.29L54.5617 127.516L54.4655 127.875L54.4603 128.248L57.46 128.29ZM58.47 124.51L56.2009 122.548L55.7497 123.069L55.5717 123.736L58.47 124.51ZM59.75 123.03L58.8913 120.156L58.0531 120.406L57.4809 121.068L59.75 123.03ZM63.7 121.85L63.6776 118.85L63.2505 118.853L62.8413 118.976L63.7 121.85ZM66.38 121.83L68.0035 119.307L67.2517 118.823L66.3576 118.83L66.38 121.83ZM69.55 123.87L67.9265 126.393L68.7222 126.905L69.6676 126.868L69.55 123.87ZM70.57 123.83L70.6876 126.828L72.6138 126.752L73.3455 124.969L70.57 123.83ZM71.21 122.27L73.9855 123.409L74.1923 122.904L74.2086 122.36L71.21 122.27ZM71.45 114.25L74.4487 114.34L74.4634 113.848L74.32 113.377L71.45 114.25ZM69.77 108.73L66.7706 108.789L66.7787 109.205L66.9 109.603L69.77 108.73ZM69.73 106.69L66.7967 106.061L66.7238 106.401L66.7306 106.749L69.73 106.69ZM71.03 100.63L73.9633 101.259L74.0128 101.028L74.0256 100.792L71.03 100.63ZM71.21 97.31L74.2056 97.4724L74.243 96.7832L73.9754 96.147L71.21 97.31ZM69.41 93.03L72.1754 91.867L71.9906 91.4277L71.6788 91.0672L69.41 93.03ZM67.55 90.88L64.5691 90.5416L64.4208 91.8483L65.2812 92.8428L67.55 90.88ZM67.97 87.18L65.2618 85.8895L65.0458 86.3428L64.9891 86.8416L67.97 87.18ZM69.39 84.2L72.0982 85.4905L72.4155 84.8247L72.3879 84.0876L69.39 84.2ZM69.3 81.8L66.5264 80.6567L66.2777 81.2602L66.3021 81.9124L69.3 81.8ZM70.92 77.87L73.6936 79.0133L74.1114 77.9998L73.7773 76.9557L70.92 77.87ZM70.52 76.62L73.3773 75.7057L73.1057 74.8571L72.415 74.2943L70.52 76.62ZM69.44 75.74L71.335 73.4143L70.1465 72.4459L68.6655 72.8417L69.44 75.74ZM68.28 76.05L67.5055 73.1517L66.4211 73.4415L65.7932 74.3719L68.28 76.05ZM65.79 79.74L67.7831 81.9822L68.0655 81.7312L68.2768 81.4181L65.79 79.74ZM65.16 80.3L65.8498 83.2196L66.587 83.0455L67.1531 82.5422L65.16 80.3ZM63.34 80.73L62.6892 83.6586L63.3605 83.8077L64.0298 83.6496L63.34 80.73ZM60.28 80.05L58.5568 82.5057L59.0459 82.8489L59.6292 82.9786L60.28 80.05ZM57.33 77.98L59.0532 75.5243L58.6865 75.267L58.2608 75.128L57.33 77.98ZM47.77 74.86L45.6098 76.9417L46.1285 77.48L46.8392 77.712L47.77 74.86ZM46.71 73.76L48.8702 71.6783L48.5711 71.3679L48.1967 71.1543L46.71 73.76ZM43.52 71.94L41.1525 73.7826L41.5174 74.2514L42.0333 74.5457L43.52 71.94ZM41.87 69.82L44.2374 67.9774L43.7452 67.3449L43.003 67.0422L41.87 69.82ZM41.11 69.51L42.2431 66.7322L41.2036 66.3082L40.1411 66.6708L41.11 69.51ZM36.48 71.09L35.371 73.8775L36.4004 74.287L37.4489 73.9292L36.48 71.09ZM34.62 70.35L35.729 67.5625L35.1642 67.3378L34.5566 67.3507L34.62 70.35ZM28 70.49L25 70.4736L24.9832 73.5545L28.0634 73.4893L28 70.49ZM28.09 54.05L28.0755 51.05L25.1063 51.0644L25.09 54.0336L28.09 54.05ZM32.23 54.03L32.2445 57.03L33.3687 57.0245L34.2124 56.2817L32.23 54.03ZM48.79 39.45L48.2032 36.5079L47.4126 36.6656L46.8076 37.1983L48.79 39.45ZM73.91 34.44L75.9019 32.1967L74.7864 31.2061L73.3232 31.4979L73.91 34.44ZM76.32 36.58L74.3281 38.8232L75.0743 39.4859L76.0687 39.5695L76.32 36.58ZM82.03 37.06L81.7787 40.0495L82.0711 40.074L82.3628 40.0415L82.03 37.06ZM88.48 36.34L88.8241 33.3598L88.4857 33.3207L88.1472 33.3585L88.48 36.34ZM93.33 36.9L92.9859 39.8802L93.2023 39.9052L93.42 39.8986L93.33 36.9ZM98.66 36.74L98.75 39.7386L100.094 39.6983L100.959 38.6678L98.66 36.74ZM114.45 30.7449L127.329 36.4249L129.75 30.9351L116.871 25.2551L114.45 30.7449ZM127.541 36.5088L148.071 43.7588L150.069 38.1012L129.539 30.8512L127.541 36.5088ZM147.55 43.5166L151.55 45.8666L154.59 40.6934L150.59 38.3434L147.55 43.5166ZM153.987 46.1363L158.627 44.6463L156.793 38.9337L152.153 40.4237L153.987 46.1363ZM157.726 44.79L161.376 44.77L161.344 38.77L157.694 38.79L157.726 44.79ZM160.056 44.472L168.596 48.592L171.204 43.188L162.664 39.068L160.056 44.472ZM167.8 48.0328L183.68 63.5928L187.88 59.3072L172 43.7472L167.8 48.0328ZM183.178 62.9433L189.158 73.3633L194.362 70.3767L188.382 59.9567L183.178 62.9433ZM189.806 69.5933L186.776 72.1933L190.684 76.7467L193.714 74.1467L189.806 69.5933ZM187.257 71.8563L180.157 75.8563L183.103 81.0837L190.203 77.0837L187.257 71.8563ZM182.03 75.4968L172.52 74.2168L171.72 80.1632L181.23 81.4432L182.03 75.4968ZM173.104 74.3561L171.204 73.6961L169.236 79.3639L171.136 80.0239L173.104 74.3561ZM172.529 74.615L170.829 72.565L166.211 76.395L167.911 78.445L172.529 74.615ZM169.381 71.6062L167.111 70.9262L165.389 76.6738L167.659 77.3538L169.381 71.6062ZM166.365 70.8022L161.395 70.6122L161.165 76.6078L166.135 76.7978L166.365 70.8022ZM158.297 73.2889L157.707 78.7689L163.673 79.4111L164.263 73.9311L158.297 73.2889ZM157.892 78.0091L157.161 79.8991L162.758 82.0609L163.489 80.1709L157.892 78.0091ZM158.752 78.2341L158.252 78.4541L160.668 83.9459L161.168 83.7259L158.752 78.2341ZM160.872 78.5529L158.172 77.1129L155.348 82.4071L158.048 83.8471L160.872 78.5529ZM156.76 76.76H153.97V82.76H156.76V76.76ZM153.051 76.9041L148.201 78.4641L150.039 84.1759L154.889 82.6159L153.051 76.9041ZM147.161 79.0483L145.051 80.8683L148.969 85.4117L151.079 83.5917L147.161 79.0483ZM144.046 82.6743L143.936 83.3743L149.864 84.3057L149.974 83.6057L144.046 82.6743ZM143.934 84.2901L144.714 89.4301L150.646 88.5299L149.866 83.3899L143.934 84.2901ZM144.68 89.0049L144.75 97.4449L150.75 97.3951L150.68 88.9551L144.68 89.0049ZM145.964 95.0093L144.614 96.0093L148.186 100.831L149.536 99.8307L145.964 95.0093ZM145.272 95.6403L141.232 97.2803L143.488 102.84L147.528 101.2L145.272 95.6403ZM142.124 97.0693L132.104 97.8593L132.576 103.841L142.596 103.051L142.124 97.0693ZM131.878 97.8858L125.788 98.8359L126.712 104.764L132.802 103.814L131.878 97.8858ZM123.769 100.114L117.939 108.694L122.901 112.066L128.731 103.486L123.769 100.114ZM118.304 108.253L116.424 110.123L120.656 114.377L122.536 112.507L118.304 108.253ZM116.955 109.703L113.885 111.613L117.055 116.707L120.125 114.797L116.955 109.703ZM112.471 114.222L112.531 117.102L118.529 116.978L118.469 114.098L112.471 114.222ZM112.663 117.924L114.093 122.564L119.827 120.796L118.397 116.156L112.663 117.924ZM113.994 122.134L114.644 126.384L120.576 125.476L119.926 121.226L113.994 122.134ZM114.696 125.218L113.956 128.248L119.784 129.672L120.524 126.642L114.696 125.218ZM115.164 126.492L112.704 128.192L116.116 133.128L118.576 131.428L115.164 126.492ZM114.151 127.671L108.041 128.201L108.559 134.179L114.669 133.649L114.151 127.671ZM108.963 128.264L107.683 127.974L106.357 133.826L107.637 134.116L108.963 128.264ZM106.624 127.926L101.824 128.566L102.616 134.514L107.416 133.874L106.624 127.926ZM102.57 128.56L99.9299 128.25L99.2301 134.21L101.87 134.52L102.57 128.56ZM99.3591 128.238L94.8891 128.568L95.3309 134.552L99.8009 134.222L99.3591 128.238ZM95.6386 128.607L86.3086 126.937L85.2514 132.843L94.5814 134.513L95.6386 128.607ZM84.1412 127.377L83.2212 127.977L86.4988 133.003L87.4188 132.403L84.1412 127.377ZM81.9218 129.884L80.9918 134.394L86.8682 135.606L87.7982 131.096L81.9218 129.884ZM80.93 135.016L81.03 153.226L87.03 153.194L86.9299 134.984L80.93 135.016ZM81.0334 153.066L80.3734 166.846L86.3666 167.134L87.0266 153.354L81.0334 153.066ZM81.8288 164.416L80.2088 165.386L83.2912 170.534L84.9112 169.564L81.8288 164.416ZM81.9728 164.968L81.0328 164.898L80.5872 170.882L81.5272 170.952L81.9728 164.968ZM83.5559 166.682L82.7859 164.932L77.2941 167.348L78.0641 169.098L83.5559 166.682ZM79.0415 163.311L77.0015 164.031L78.9985 169.689L81.0385 168.969L79.0415 163.311ZM79.2425 164.129L77.3525 163.269L74.8675 168.731L76.7575 169.591L79.2425 164.129ZM75.8975 163.008L74.2075 163.128L74.6325 169.112L76.3225 168.992L75.8975 163.008ZM73.1794 163.389L61.1794 168.839L63.6605 174.301L75.6605 168.851L73.1794 163.389ZM60.0774 169.696L57.6774 172.696L62.3626 176.444L64.7626 173.444L60.0774 169.696ZM58.1611 172.215L56.4511 173.565L60.1689 178.275L61.8789 176.925L58.1611 172.215ZM58.6213 172.936L55.8413 172.646L55.2187 178.614L57.9987 178.904L58.6213 172.936ZM57.2016 173.139L56.4416 172.629L53.0984 177.611L53.8584 178.121L57.2016 173.139ZM57.2293 173.402L54.6793 169.752L49.7607 173.188L52.3107 176.838L57.2293 173.402ZM55.135 172.179L56.295 167.409L50.465 165.991L49.305 170.761L55.135 172.179ZM56.1017 167.962L58.7118 162.332L53.2682 159.808L50.6582 165.438L56.1017 167.962ZM58.922 161.705L61.042 151.915L55.178 150.645L53.058 160.435L58.922 161.705ZM61.1045 151.099L60.3145 138.049L54.3255 138.411L55.1155 151.461L61.1045 151.099ZM60.3197 138.272L60.4597 128.332L54.4603 128.248L54.3203 138.188L60.3197 138.272ZM60.3583 129.064L61.3683 125.284L55.5717 123.736L54.5617 127.516L60.3583 129.064ZM60.7391 126.472L62.0191 124.992L57.4809 121.068L56.2009 122.548L60.7391 126.472ZM60.6087 125.904L64.5587 124.724L62.8413 118.976L58.8913 120.156L60.6087 125.904ZM63.7224 124.85L66.4024 124.83L66.3576 118.83L63.6776 118.85L63.7224 124.85ZM64.7565 124.353L67.9265 126.393L71.1735 121.347L68.0035 119.307L64.7565 124.353ZM69.6676 126.868L70.6876 126.828L70.4524 120.832L69.4324 120.872L69.6676 126.868ZM73.3455 124.969L73.9855 123.409L68.4345 121.131L67.7945 122.691L73.3455 124.969ZM74.2086 122.36L74.4487 114.34L68.4513 114.16L68.2113 122.18L74.2086 122.36ZM74.32 113.377L72.64 107.857L66.9 109.603L68.58 115.123L74.32 113.377ZM72.7694 108.671L72.7294 106.631L66.7306 106.749L66.7706 108.789L72.7694 108.671ZM72.6633 107.319L73.9633 101.259L68.0967 100.001L66.7967 106.061L72.6633 107.319ZM74.0256 100.792L74.2056 97.4724L68.2144 97.1476L68.0344 100.468L74.0256 100.792ZM73.9754 96.147L72.1754 91.867L66.6446 94.193L68.4446 98.473L73.9754 96.147ZM71.6788 91.0672L69.8188 88.9172L65.2812 92.8428L67.1412 94.9928L71.6788 91.0672ZM70.5309 91.2184L70.9509 87.5184L64.9891 86.8416L64.5691 90.5416L70.5309 91.2184ZM70.6782 88.4705L72.0982 85.4905L66.6818 82.9095L65.2618 85.8895L70.6782 88.4705ZM72.3879 84.0876L72.2979 81.6876L66.3021 81.9124L66.3921 84.3124L72.3879 84.0876ZM72.0736 82.9433L73.6936 79.0133L68.1464 76.7267L66.5264 80.6567L72.0736 82.9433ZM73.7773 76.9557L73.3773 75.7057L67.6627 77.5343L68.0627 78.7843L73.7773 76.9557ZM72.415 74.2943L71.335 73.4143L67.545 78.0657L68.625 78.9457L72.415 74.2943ZM68.6655 72.8417L67.5055 73.1517L69.0545 78.9483L70.2145 78.6383L68.6655 72.8417ZM65.7932 74.3719L63.3032 78.0619L68.2768 81.4181L70.7668 77.7281L65.7932 74.3719ZM63.7969 77.4978L63.1669 78.0578L67.1531 82.5422L67.7831 81.9822L63.7969 77.4978ZM64.4702 77.3804L62.6502 77.8104L64.0298 83.6496L65.8498 83.2196L64.4702 77.3804ZM63.9908 77.8014L60.9308 77.1214L59.6292 82.9786L62.6892 83.6586L63.9908 77.8014ZM62.0032 77.5943L59.0532 75.5243L55.6068 80.4357L58.5568 82.5057L62.0032 77.5943ZM58.2608 75.128L48.7008 72.008L46.8392 77.712L56.3992 80.832L58.2608 75.128ZM49.9302 72.7783L48.8702 71.6783L44.5498 75.8417L45.6098 76.9417L49.9302 72.7783ZM48.1967 71.1543L45.0067 69.3343L42.0333 74.5457L45.2233 76.3657L48.1967 71.1543ZM45.8875 70.0974L44.2374 67.9774L39.5025 71.6626L41.1525 73.7826L45.8875 70.0974ZM43.003 67.0422L42.2431 66.7322L39.9769 72.2878L40.7369 72.5978L43.003 67.0422ZM40.1411 66.6708L35.5111 68.2508L37.4489 73.9292L42.0789 72.3492L40.1411 66.6708ZM37.589 68.3025L35.729 67.5625L33.511 73.1375L35.371 73.8775L37.589 68.3025ZM34.5566 67.3507L27.9366 67.4907L28.0634 73.4893L34.6834 73.3493L34.5566 67.3507ZM31 70.5064L31.09 54.0664L25.09 54.0336L25 70.4736L31 70.5064ZM28.1045 57.05L32.2445 57.03L32.2155 51.03L28.0755 51.05L28.1045 57.05ZM34.2124 56.2817L50.7724 41.7017L46.8076 37.1983L30.2476 51.7783L34.2124 56.2817ZM49.3768 42.3921L74.4968 37.3821L73.3232 31.4979L48.2032 36.5079L49.3768 42.3921ZM71.9181 36.6833L74.3281 38.8232L78.3119 34.3367L75.9019 32.1967L71.9181 36.6833ZM76.0687 39.5695L81.7787 40.0495L82.2813 34.0705L76.5713 33.5905L76.0687 39.5695ZM82.3628 40.0415L88.8128 39.3215L88.1472 33.3585L81.6972 34.0785L82.3628 40.0415ZM88.1359 39.3202L92.9859 39.8802L93.6741 33.9198L88.8241 33.3598L88.1359 39.3202ZM93.42 39.8986L98.75 39.7386L98.57 33.7414L93.24 33.9014L93.42 39.8986ZM100.959 38.6678L106.209 32.4078L101.611 28.5522L96.3614 34.8122L100.959 38.6678Z" fill="#2D8E6E" mask="url(#path-1-inside-1_43_63)"/>
</svg>
