<svg width="204" height="204" viewBox="0 0 204 204" fill="none" xmlns="http://www.w3.org/2000/svg">
<mask id="path-1-inside-1_43_59" fill="white">
<path d="M145.45 35.17L150.9 41.69L155.98 41.58L159.32 40.97L157.88 51.79L158.87 57.96L158.8 64.01L159.8 69.18L160.19 73.93L161.5 77.14L161.1 80.71L163.6 85.91L164.29 88.96L164.16 90.64L165.11 93.11L164.02 98.27L162.2 101.9L163.46 103.11L165.99 104.27L168.67 106.56L169.83 107.99L170.33 109.94L168.44 111.56L165.1 110.75L164.55 113.95L159.67 117.92L158.39 117.05L151.78 117.18L150.28 118.02L149.63 122.02L148.07 126.16L147.62 129.92L147.78 130.99L149.69 132.89L150.59 136.58L149.34 142.68L149.32 145.01L148.31 144.98L145.97 147.36L143.22 149.13L142.37 150.27L140.66 153.68L140.02 157.23L138.51 160.46L135.47 163.56L133.14 165.07L128.43 165.69L120.49 165.12L114.85 166.07L109.58 170.78L106.72 174.94L105.44 175.7L103.76 175.82L103.83 174.98L102.24 170.89L98.44 164.25L95.12 159.85L94.91 154.37L93.53 146.79L91.6 143.78L86.22 141.07V139.87L88.27 133.38L88.28 130.91L86.87 128.76L82.52 126.99L77.67 126.37L76.45 127.18L73.96 127.77L70.17 127.27L64.7 128.03L61.05 125.62L58.18 125.51L56.49 122.21L55.41 121.64L51.8 122.29L49.71 121.98L48.8 121.34L48.01 121.49L46.95 122.11L46.13 124.43L39.79 125.89L35.68 123.64H33.86L33 124.12L33.66 110.34L33.56 92.13L34.49 87.62L35.41 87.02L44.74 88.69L49.21 88.36L51.85 88.67L56.65 88.03L57.93 88.32L64.04 87.79L66.5 86.09L67.24 83.06L66.59 78.81L65.16 74.17L65.1 71.29L68.17 69.38L70.05 67.51L75.88 58.93L81.97 57.98L91.99 57.19L96.03 55.55L97.38 54.55L97.31 46.11L96.53 40.97L96.64 40.27L98.75 38.45L103.6 36.89H106.39L109.09 38.33L109.59 38.11L110.32 36.22L110.91 30.74L115.88 30.93L118.15 31.61L119.85 33.66L121.75 34.32L131.26 35.6L138.36 31.6L141.39 29L145.45 35.17Z"/>
</mask>
<path d="M145.45 35.17L150.9 41.69L155.98 41.58L159.32 40.97L157.88 51.79L158.87 57.96L158.8 64.01L159.8 69.18L160.19 73.93L161.5 77.14L161.1 80.71L163.6 85.91L164.29 88.96L164.16 90.64L165.11 93.11L164.02 98.27L162.2 101.9L163.46 103.11L165.99 104.27L168.67 106.56L169.83 107.99L170.33 109.94L168.44 111.56L165.1 110.75L164.55 113.95L159.67 117.92L158.39 117.05L151.78 117.18L150.28 118.02L149.63 122.02L148.07 126.16L147.62 129.92L147.78 130.99L149.69 132.89L150.59 136.58L149.34 142.68L149.32 145.01L148.31 144.98L145.97 147.36L143.22 149.13L142.37 150.27L140.66 153.68L140.02 157.23L138.51 160.46L135.47 163.56L133.14 165.07L128.43 165.69L120.49 165.12L114.85 166.07L109.58 170.78L106.72 174.94L105.44 175.7L103.76 175.82L103.83 174.98L102.24 170.89L98.44 164.25L95.12 159.85L94.91 154.37L93.53 146.79L91.6 143.78L86.22 141.07V139.87L88.27 133.38L88.28 130.91L86.87 128.76L82.52 126.99L77.67 126.37L76.45 127.18L73.96 127.77L70.17 127.27L64.7 128.03L61.05 125.62L58.18 125.51L56.49 122.21L55.41 121.64L51.8 122.29L49.71 121.98L48.8 121.34L48.01 121.49L46.95 122.11L46.13 124.43L39.79 125.89L35.68 123.64H33.86L33 124.12L33.66 110.34L33.56 92.13L34.49 87.62L35.41 87.02L44.74 88.69L49.21 88.36L51.85 88.67L56.65 88.03L57.93 88.32L64.04 87.79L66.5 86.09L67.24 83.06L66.59 78.81L65.16 74.17L65.1 71.29L68.17 69.38L70.05 67.51L75.88 58.93L81.97 57.98L91.99 57.19L96.03 55.55L97.38 54.55L97.31 46.11L96.53 40.97L96.64 40.27L98.75 38.45L103.6 36.89H106.39L109.09 38.33L109.59 38.11L110.32 36.22L110.91 30.74L115.88 30.93L118.15 31.61L119.85 33.66L121.75 34.32L131.26 35.6L138.36 31.6L141.39 29L145.45 35.17Z" fill="black" stroke="#2D8E6E" stroke-width="6" mask="url(#path-1-inside-1_43_59)"/>
</svg>
